PathFileType	4	(X/Y/Z)	joints.trc
DataRate	CameraRate	NumFrames	NumMarkers	Units	OrigDataRate	OrigDataStartFrame	OrigNumFrames
30.0	30.0	24	17	m	30.0	1	120
Frame#	Time	smpl_pelvis			l_smpl_hip			r_smpl_hip			smpl_spine			l_smpl_knee			r_smpl_knee			l_smpl_ankle			r_smpl_ankle			l_smpl_mtp			r_smpl_mtp			smpl_head			l_smpl_shoulder			r_smpl_shoulder			l_smpl_elbow			r_smpl_elbow			l_smpl_hand			r_smpl_hand		
		X1	Y1	Z1	X2	Y2	Z2	X3	Y3	Z3	X4	Y4	Z4	X5	Y5	Z5	X6	Y6	Z6	X7	Y7	Z7	X8	Y8	Z8	X9	Y9	Z9	X10	Y10	Z10	X11	Y11	Z11	X12	Y12	Z12	X13	Y13	Z13	X14	Y14	Z14	X15	Y15	Z15	X16	Y16	Z16	X17	Y17	Z17
1	0.000000	0.000000	0.943830	0.000000	0.059811	0.860004	-0.007629	-0.063801	0.855420	-0.012309	0.003166	1.073515	-0.023106	0.142319	0.476676	-0.029148	-0.132164	0.473170	-0.031781	0.180049	0.047544	-0.074073	-0.162888	0.051172	-0.089098	0.235019	0.011694	0.052142	-0.212058	0.009460	0.044673	-0.012983	1.568183	0.034502	0.196552	1.352873	0.001594	-0.201276	1.369046	0.000348	0.226153	1.097788	-0.002723	-0.233239	1.108338	0.005264	0.238190	0.855216	0.098064	-0.251065	0.863829	0.112980
2	0.033333	-0.000960	0.943929	0.000058	0.058808	0.860147	-0.007510	-0.064648	0.855528	-0.012034	0.001976	1.073671	-0.023032	0.141242	0.476549	-0.028749	-0.132585	0.473071	-0.031529	0.178616	0.047588	-0.073680	-0.162496	0.051186	-0.089082	0.233362	0.011475	0.052593	-0.211483	0.009458	0.044803	-0.014282	1.567971	0.035040	0.195291	1.352883	0.002256	-0.202075	1.368787	0.000885	0.225029	1.097826	-0.000822	-0.234244	1.108168	0.006397	0.235568	0.855782	0.101242	-0.251188	0.864313	0.115786
3	0.066667	-0.002022	0.943962	0.000173	0.057755	0.860257	-0.007409	-0.065591	0.855511	-0.011959	0.000781	1.073726	-0.022717	0.140285	0.476187	-0.028169	-0.133079	0.472834	-0.030863	0.177487	0.047490	-0.073443	-0.162411	0.051146	-0.088515	0.232300	0.011279	0.052989	-0.210919	0.009553	0.045693	-0.015527	1.567864	0.036223	0.194230	1.353207	0.003643	-0.203276	1.368909	0.001660	0.224335	1.098121	0.001226	-0.235913	1.108390	0.006967	0.233926	0.855848	0.104152	-0.253076	0.864249	0.116583
4	0.100000	-0.003287	0.943922	0.000345	0.056553	0.860266	-0.007262	-0.066680	0.855417	-0.012007	-0.000493	1.073707	-0.022249	0.139126	0.475785	-0.027342	-0.133600	0.472581	-0.030211	0.176560	0.047253	-0.073123	-0.162052	0.051023	-0.087935	0.231198	0.011106	0.053605	-0.210237	0.009567	0.046501	-0.017285	1.567744	0.037868	0.192808	1.353526	0.005428	-0.204917	1.368929	0.002419	0.223593	1.098410	0.003090	-0.238160	1.108338	0.006919	0.232929	0.855664	0.106375	-0.256197	0.863692	0.116145
5	0.133333	-0.004767	0.943833	0.000550	0.055155	0.860209	-0.007121	-0.068003	0.855321	-0.012181	-0.001922	1.073664	-0.021649	0.137867	0.475477	-0.026274	-0.134385	0.472370	-0.029578	0.176014	0.047128	-0.072990	-0.161934	0.050916	-0.087565	0.230432	0.011017	0.054008	-0.210129	0.009528	0.046907	-0.019431	1.567672	0.040043	0.191084	1.353695	0.007577	-0.206884	1.368780	0.003445	0.222709	1.098479	0.004582	-0.240722	1.108085	0.006471	0.232399	0.855075	0.107307	-0.260156	0.862673	0.114548
6	0.166667	-0.006476	0.943760	0.000758	0.053554	0.860184	-0.007099	-0.069574	0.855276	-0.012463	-0.003625	1.073687	-0.020899	0.136437	0.475236	-0.024846	-0.135251	0.472209	-0.028451	0.175595	0.047189	-0.073148	-0.161721	0.050868	-0.087134	0.229807	0.011028	0.054118	-0.210004	0.009574	0.047363	-0.021880	1.567689	0.043557	0.189066	1.353915	0.010529	-0.209182	1.368580	0.005268	0.221964	1.098591	0.005850	-0.243698	1.107854	0.005599	0.233001	0.854257	0.106953	-0.265066	0.861257	0.111288
7	0.200000	-0.008438	0.943740	0.000895	0.051701	0.860238	-0.007341	-0.071449	0.855321	-0.012920	-0.005648	1.073828	-0.020044	0.134737	0.475007	-0.022646	-0.136279	0.472113	-0.026383	0.175204	0.047410	-0.073595	-0.161485	0.050907	-0.086704	0.229353	0.011206	0.053931	-0.209834	0.009774	0.047855	-0.024497	1.567815	0.048815	0.186747	1.354298	0.014472	-0.211805	1.368465	0.008250	0.221528	1.099048	0.006849	-0.247216	1.107932	0.004365	0.234962	0.853601	0.105415	-0.270813	0.859797	0.106583
8	0.233333	-0.010727	0.943883	0.000759	0.049529	0.860480	-0.008108	-0.073721	0.855534	-0.013813	-0.008056	1.074193	-0.019241	0.132588	0.474879	-0.018617	-0.137389	0.472126	-0.022903	0.174721	0.047881	-0.074376	-0.160966	0.051152	-0.086631	0.228927	0.011574	0.053385	-0.209202	0.010145	0.048122	-0.027331	1.567987	0.056514	0.184074	1.354979	0.019895	-0.214855	1.368596	0.012995	0.221186	1.100172	0.007880	-0.251296	1.108532	0.003089	0.237716	0.853436	0.103109	-0.277088	0.858437	0.100743
9	0.266667	-0.013375	0.944022	-0.000137	0.046968	0.860744	-0.009906	-0.076511	0.855727	-0.015669	-0.010758	1.074606	-0.019086	0.129765	0.475015	-0.009837	-0.138236	0.472147	-0.016488	0.173948	0.049203	-0.075373	-0.159636	0.051678	-0.086996	0.228090	0.012311	0.052593	-0.207517	0.010694	0.048188	-0.030413	1.567672	0.067987	0.181050	1.355799	0.027629	-0.218388	1.368677	0.020378	0.220819	1.102028	0.009123	-0.255841	1.109442	0.002168	0.240929	0.853747	0.100078	-0.283311	0.857018	0.094295
10	0.300000	-0.016274	0.942763	-0.002688	0.043981	0.859670	-0.013579	-0.079739	0.854540	-0.019314	-0.013507	1.073589	-0.020680	0.126563	0.475239	0.009344	-0.138332	0.471217	-0.003187	0.173022	0.053030	-0.075362	-0.157371	0.052691	-0.087626	0.227023	0.014488	0.052630	-0.204930	0.011562	0.048419	-0.033269	1.564911	0.084580	0.178216	1.354864	0.038522	-0.221893	1.366660	0.031403	0.220575	1.102876	0.010585	-0.260357	1.108809	0.001979	0.244738	0.852865	0.096311	-0.288729	0.853560	0.087072
11	0.333333	-0.019104	0.936692	-0.007663	0.040879	0.853782	-0.019461	-0.082748	0.848647	-0.025069	-0.016102	1.067764	-0.024811	0.123902	0.473808	0.039080	-0.138438	0.467838	0.020626	0.173897	0.059231	-0.074493	-0.155819	0.055733	-0.089557	0.227692	0.018308	0.053171	-0.203661	0.013846	0.047629	-0.035418	1.556059	0.103458	0.176033	1.347771	0.050550	-0.224799	1.358891	0.044616	0.220037	1.097700	0.011481	-0.264308	1.102797	0.002240	0.247535	0.845851	0.091161	-0.293097	0.844583	0.079236
12	0.366667	-0.021188	0.919069	-0.014024	0.038403	0.836169	-0.025853	-0.084623	0.831198	-0.031896	-0.017843	1.050564	-0.030435	0.123011	0.467007	0.080816	-0.140288	0.459334	0.057129	0.178839	0.065928	-0.072816	-0.157756	0.061010	-0.093025	0.231154	0.021758	0.053347	-0.205671	0.016527	0.044181	-0.036344	1.533862	0.124839	0.174767	1.326859	0.065330	-0.226243	1.338285	0.060595	0.219754	1.078526	0.014725	-0.267147	1.084323	0.004236	0.249224	0.824806	0.086020	-0.296632	0.823603	0.072327
13	0.400000	-0.022045	0.887609	-0.020138	0.037001	0.804474	-0.031208	-0.085162	0.799872	-0.038561	-0.017864	1.019554	-0.036251	0.122476	0.453233	0.125403	-0.142594	0.444183	0.100543	0.185384	0.070381	-0.072241	-0.163057	0.064403	-0.091422	0.236901	0.023289	0.051957	-0.211479	0.017064	0.044035	-0.037175	1.495509	0.146375	0.174409	1.289580	0.081730	-0.225991	1.301318	0.077068	0.219858	1.043001	0.020560	-0.267850	1.049705	0.008393	0.250704	0.787934	0.083005	-0.298825	0.787515	0.067697
14	0.433333	-0.021529	0.846433	-0.023828	0.037004	0.762994	-0.033930	-0.084256	0.758786	-0.042460	-0.016573	0.978478	-0.040418	0.119579	0.433384	0.164883	-0.140631	0.423601	0.144848	0.190704	0.071031	-0.071898	-0.168218	0.063675	-0.082970	0.242624	0.022515	0.051456	-0.218026	0.014884	0.050780	-0.037774	1.445782	0.166055	0.174527	1.240165	0.096314	-0.225108	1.252447	0.091345	0.218905	0.994616	0.027073	-0.265647	1.002506	0.013797	0.251614	0.738707	0.083672	-0.299833	0.739649	0.066241
15	0.466667	-0.019962	0.801962	-0.022902	0.038412	0.718476	-0.032333	-0.082280	0.714352	-0.040893	-0.014520	0.933591	-0.040950	0.115678	0.406471	0.198646	-0.135891	0.398576	0.184340	0.196610	0.068447	-0.071091	-0.170843	0.061656	-0.076741	0.248191	0.019602	0.051775	-0.221821	0.011528	0.055386	-0.036584	1.393144	0.182288	0.175220	1.186589	0.107327	-0.223516	1.200606	0.102584	0.216472	0.940913	0.032240	-0.261603	0.952296	0.017879	0.252425	0.683963	0.085054	-0.302161	0.688802	0.065442
16	0.500000	-0.017547	0.772002	-0.015054	0.040636	0.688273	-0.024305	-0.079936	0.684361	-0.031335	-0.011631	0.902956	-0.034880	0.113564	0.380339	0.216884	-0.133070	0.377162	0.207695	0.205095	0.064000	-0.076780	-0.173831	0.062432	-0.081603	0.255795	0.015725	0.046219	-0.225316	0.009160	0.048222	-0.032389	1.363425	0.185679	0.178826	1.156328	0.109125	-0.220435	1.171672	0.105514	0.217990	0.910433	0.029077	-0.258894	0.927171	0.012794	0.261343	0.653501	0.078256	-0.310504	0.662023	0.055016
17	0.533333	-0.014676	0.777844	0.001304	0.042892	0.693863	-0.006629	-0.077301	0.690120	-0.014819	-0.008222	0.909181	-0.017668	0.113477	0.373624	0.212662	-0.129268	0.375520	0.206256	0.209600	0.062466	-0.080446	-0.178211	0.065228	-0.085596	0.263947	0.010368	0.041844	-0.233227	0.008233	0.043298	-0.030409	1.378782	0.183323	0.184692	1.175895	0.112696	-0.217894	1.190549	0.108165	0.227188	0.932072	0.025033	-0.260369	0.951238	0.003121	0.280639	0.677672	0.070949	-0.325616	0.687103	0.042456
18	0.566667	-0.011847	0.840036	0.025473	0.044911	0.755890	0.017783	-0.073434	0.751963	0.008948	-0.005198	0.971854	0.007211	0.122952	0.411031	0.179306	-0.135174	0.410814	0.176010	0.218943	0.078012	-0.078562	-0.184384	0.075562	-0.074800	0.274389	0.009478	0.040512	-0.239266	0.005931	0.049568	-0.027558	1.455809	0.173076	0.187328	1.263578	0.106954	-0.215159	1.276557	0.102289	0.239218	1.025784	0.010496	-0.259496	1.045096	-0.017970	0.310630	0.772646	0.050052	-0.336959	0.781963	0.020197
19	0.600000	-0.009922	0.952918	0.052525	0.047152	0.868012	0.042469	-0.071049	0.864734	0.034675	-0.003966	1.084612	0.036578	0.139782	0.495067	0.132043	-0.151662	0.495752	0.130822	0.223664	0.111833	-0.037875	-0.192188	0.113896	-0.039399	0.271028	0.015573	0.057755	-0.234213	0.013009	0.065240	-0.025675	1.580799	0.156581	0.190260	1.396776	0.094484	-0.211786	1.408247	0.090084	0.244972	1.161500	0.001897	-0.250784	1.175875	-0.030394	0.332770	0.912170	0.039955	-0.341775	0.918707	0.012088
20	0.633333	-0.008749	1.077887	0.075438	0.049941	0.994646	0.062084	-0.070622	0.990174	0.054587	-0.003732	1.211358	0.067997	0.152367	0.611759	0.065388	-0.159455	0.608582	0.064093	0.221848	0.188601	0.028067	-0.203512	0.181094	0.025306	0.264582	0.066769	0.086343	-0.234773	0.049685	0.093052	-0.028736	1.703342	0.148823	0.186745	1.532001	0.084687	-0.208393	1.539750	0.080601	0.247502	1.295404	-0.004117	-0.243120	1.302704	-0.038453	0.354290	1.053328	0.026028	-0.341880	1.049089	0.011426
21	0.666667	-0.007703	1.173829	0.080322	0.050407	1.090995	0.066732	-0.068007	1.086366	0.057297	-0.002991	1.307328	0.075864	0.144319	0.709264	0.051668	-0.153572	0.705635	0.051753	0.212933	0.279965	0.042013	-0.198660	0.274391	0.038680	0.261984	0.157861	0.095105	-0.236778	0.142918	0.096257	-0.028824	1.796728	0.140864	0.187089	1.631552	0.080529	-0.206074	1.635785	0.071869	0.255762	1.398731	-0.007505	-0.239181	1.400851	-0.046211	0.373215	1.161551	0.017368	-0.342526	1.153293	0.013220
22	0.700000	-0.007781	1.249633	0.077945	0.050191	1.166924	0.064911	-0.067882	1.162306	0.057348	-0.003264	1.382818	0.071221	0.139323	0.783409	0.054469	-0.150875	0.780495	0.058583	0.202143	0.356505	0.023007	-0.189611	0.355055	0.026964	0.250172	0.232594	0.074039	-0.227934	0.223700	0.081818	-0.028352	1.872139	0.131020	0.187828	1.710069	0.070441	-0.205041	1.711814	0.059952	0.262392	1.481052	-0.019522	-0.235422	1.477651	-0.058570	0.388425	1.250866	0.008124	-0.345088	1.240998	0.016600
23	0.733333	-0.007600	1.287714	0.075392	0.050663	1.205198	0.064113	-0.068432	1.200543	0.056901	-0.002907	1.420289	0.065369	0.137436	0.822172	0.059131	-0.146437	0.818798	0.061061	0.200249	0.398609	0.011893	-0.181982	0.395537	0.014232	0.247570	0.273693	0.061182	-0.218135	0.264160	0.069488	-0.027886	1.909317	0.120290	0.187598	1.751514	0.057593	-0.203811	1.750149	0.045336	0.267727	1.526013	-0.034404	-0.233366	1.516664	-0.070904	0.401673	1.303912	0.005766	-0.351116	1.296766	0.028647
24	0.766667	-0.006855	1.301705	0.073595	0.051824	1.219076	0.064486	-0.067915	1.214409	0.055512	-0.001750	1.433897	0.061378	0.139195	0.836061	0.061623	-0.145204	0.833544	0.062114	0.202116	0.411056	0.008057	-0.180361	0.411270	0.002480	0.247650	0.286078	0.060286	-0.215079	0.278276	0.059227	-0.027932	1.922694	0.108225	0.187734	1.769240	0.044041	-0.202588	1.765382	0.028513	0.273286	1.545284	-0.048626	-0.232519	1.530825	-0.086177	0.416697	1.332270	0.008963	-0.360461	1.335780	0.046847
